<?xml version="1.0" encoding="utf-8"?>
<!-- Generator: Adobe Illustrator 23.0.3, SVG Export Plug-In . SVG Version: 6.00 Build 0)  -->
<svg version="1.1" id="Layer_1" xmlns="http://www.w3.org/2000/svg" xmlns:xlink="http://www.w3.org/1999/xlink" x="0px" y="0px"
	 viewBox="0 0 128 128" style="enable-background:new 0 0 128 128;" xml:space="preserve">
<style type="text/css">
	.st0{fill:#004D71;}
	.st1{fill:#009ADE;}
	.st2{fill:#1DCAD3;}
</style>
<g>
	<g>
		<path class="st0" d="M65,57.5c0.3,0,0.3,0.1,0.2,0.4l-4.4,10.4c-1.1,2.6-1.4,2.9-4.1,2.9c-2.6,0-2.7-0.3-3-2.9l-1.2-10.4
			c0-0.3,0.1-0.4,0.3-0.4h2.4c0.2,0,0.2,0.1,0.3,0.4l1,9.8c0.1,0.9,0.2,1,0.6,1c0.5,0,0.6-0.1,1-1l4-9.8c0.1-0.3,0.2-0.4,0.4-0.4H65
			z"/>
		<path class="st0" d="M76.8,64l-0.1,0.7c-0.1,0.5-0.2,0.7-0.9,0.7H68c-0.3,2.6,0.1,3.2,2.5,3.2h4.2c0.2,0,0.3,0.1,0.3,0.4l-0.2,1.5
			c0,0.3-0.2,0.4-0.4,0.4c-1.3,0.2-2.8,0.3-4.4,0.3c-4.8,0-5.6-1.4-4.8-6.9c0.9-5.6,2.2-6.9,7-6.9C76.7,57.3,77.6,58.6,76.8,64z
			 M68.3,63.2h5.6c0.4-2.7,0-3.3-2.2-3.3C69.4,59.9,68.8,60.6,68.3,63.2z"/>
		<path class="st0" d="M88.1,57.6c0.2,0,0.3,0.2,0.3,0.4l-0.2,1.4c0,0.2-0.2,0.4-0.4,0.4h-4.5c-1.1,0-1.7,0.3-1.8,1.1l0,0.3
			c-0.1,0.6,0.1,1.1,1.1,1.4l3,1.2c2,0.8,2.2,2.1,1.9,3.6l0,0.3c-0.5,2.8-2.4,3.4-5.6,3.4c-2.1,0-4-0.1-4.7-0.2
			c-0.3,0-0.4-0.1-0.3-0.4L77,69c0-0.3,0.2-0.4,0.4-0.4h4.8c1.6,0,2.2-0.2,2.3-1.1l0-0.2c0.1-0.6-0.1-1-1.2-1.4l-3.1-1.2
			c-1.8-0.7-2.1-2.2-1.9-3.6l0.1-0.5c0.4-2.7,2.7-3.3,5.8-3.3C85.4,57.3,86.7,57.4,88.1,57.6z"/>
		<path class="st0" d="M94.9,53.7c0.3-0.1,0.4,0.1,0.3,0.3l-0.5,3.4h3c0.3,0,0.4,0.1,0.3,0.4l-0.3,1.5c0,0.3-0.2,0.4-0.4,0.4h-3
			l-1.2,7.5c-0.2,1.1,0.1,1.3,1.3,1.3h1.1c0.3,0,0.4,0.1,0.4,0.3l-0.2,1.6c-0.1,0.3-0.2,0.4-0.5,0.4c-0.7,0.1-1.4,0.2-1.8,0.2
			c-1.9,0-3.9,0-3.4-3l1.3-8.4h-1.4c-0.3,0-0.4-0.1-0.3-0.4l0.2-1.5c0-0.2,0.2-0.4,0.4-0.4h1.4l0.4-2.8c0-0.2,0.2-0.3,0.4-0.4
			L94.9,53.7z"/>
		<path class="st0" d="M109.6,61.3l-1.4,8.5c0,0.3-0.1,0.6-0.6,0.7c-1.4,0.4-3.5,0.5-5.6,0.5c-3.4,0-5.1-0.5-4.5-4.1
			c0.5-3.1,2.3-3.9,5.3-3.9h3.6l0.2-1.3c0.2-1.4-1.1-2-3-2h-4.1c-0.3,0-0.3-0.1-0.3-0.4l0.2-1.5c0-0.3,0.1-0.3,0.4-0.4
			c1.5-0.3,2.9-0.3,4.2-0.3C108.3,57.3,110,58.7,109.6,61.3z M102.6,65.3c-1.3,0-2,0.4-2.2,1.6c-0.2,1.4,0.4,1.7,2.2,1.7
			c0.6,0,2,0,2.8-0.3l0.5-3.1H102.6z"/>
	</g>
	<g>
		<polygon class="st1" points="38.1,71.2 35,71.2 36.7,76.3 		"/>
		<g>
			<polyline class="st0" points="30.6,57.5 35.1,71.2 35.1,71.2 			"/>
			<path class="st0" d="M35.1,71.2l7.9,0c1.1,0,1.9-0.6,2.3-1.7l5-11.7c0.1-0.1,0-0.3-0.2-0.3l-19.5,0"/>
			<path class="st0" d="M18.4,70.9c-0.1,0.1,0,0.3,0.2,0.3l7.1,0l-3.3-10L18.4,70.9z"/>
			<path class="st2" d="M27.2,75.5c0.1,0.4,0.5,0.7,0.9,0.7c0.1,0,0.1,0,0.2,0h8.5h0l-7.6-23.1c-0.2-0.5-0.6-0.9-1.2-0.9h-8.4
				L27.2,75.5z"/>
		</g>
	</g>
	<g>
		<polyline class="st1" points="34.1,52.3 32.5,57.5 35.7,57.5 34.1,52.3 		"/>
		<path class="st2" d="M42.5,52.3c0.5,0,1,0.3,1.1,0.8l2.7,8.4l-9.9-2.1l-2.3-7.1H42.5z"/>
	</g>
</g>
</svg>
